<svg xmlns="http://www.w3.org/2000/svg" xmlns:svg="http://www.w3.org/2000/svg" id="svg2" width="408" height="221.333" version="1.1" viewBox="0 0 408 221.333" xml:space="preserve"><metadata id="metadata8"/><g id="g10" transform="matrix(1.3333333,0,0,-1.3333333,0,221.33333)"><g id="g12" transform="scale(0.1)"><path id="path14" d="M 0,0 H 4310 V 3680 H 0 Z" style="fill:#fff;fill-opacity:1;fill-rule:nonzero;stroke:none"/><path id="path16" d="m 110,1345 h 200 v 200 H 110 Z" style="fill:#fff;fill-opacity:1;fill-rule:nonzero;stroke:none"/><path id="path18" d="m 115,1345 h 200 v 200 H 115 Z" style="fill:none;stroke:#000;stroke-width:10;stroke-linecap:round;stroke-linejoin:round;stroke-miterlimit:10;stroke-dasharray:none;stroke-opacity:1"/><path id="path20" d="m 310,1345 h 200 v 200 H 310 Z" style="fill:#fff;fill-opacity:1;fill-rule:nonzero;stroke:none"/><path id="path22" d="m 315,1345 h 200 v 200 H 315 Z" style="fill:none;stroke:#000;stroke-width:10;stroke-linecap:round;stroke-linejoin:round;stroke-miterlimit:10;stroke-dasharray:none;stroke-opacity:1"/><path id="path24" d="m 510,1345 h 200 v 200 H 510 Z" style="fill:#fff;fill-opacity:1;fill-rule:nonzero;stroke:none"/><path id="path26" d="m 515,1345 h 200 v 200 H 515 Z" style="fill:none;stroke:#000;stroke-width:10;stroke-linecap:round;stroke-linejoin:round;stroke-miterlimit:10;stroke-dasharray:none;stroke-opacity:1"/><path id="path28" d="m 710,1345 h 200 v 200 H 710 Z" style="fill:#fff;fill-opacity:1;fill-rule:nonzero;stroke:none"/><path id="path30" d="m 715,1345 h 200 v 200 H 715 Z" style="fill:none;stroke:#000;stroke-width:10;stroke-linecap:round;stroke-linejoin:round;stroke-miterlimit:10;stroke-dasharray:none;stroke-opacity:1"/><path id="path32" d="m 910,1345 h 200 v 200 H 910 Z" style="fill:#fff;fill-opacity:1;fill-rule:nonzero;stroke:none"/><path id="path34" d="m 915,1345 h 200 v 200 H 915 Z" style="fill:none;stroke:#000;stroke-width:10;stroke-linecap:round;stroke-linejoin:round;stroke-miterlimit:10;stroke-dasharray:none;stroke-opacity:1"/><path id="path36" d="m 1110,1345 h 200 v 200 h -200 z" style="fill:#fff;fill-opacity:1;fill-rule:nonzero;stroke:none"/><path id="path38" d="m 1115,1345 h 200 v 200 h -200 z" style="fill:none;stroke:#000;stroke-width:10;stroke-linecap:round;stroke-linejoin:round;stroke-miterlimit:10;stroke-dasharray:none;stroke-opacity:1"/><path id="path40" d="m 1310,1345 h 200 v 200 h -200 z" style="fill:#fff;fill-opacity:1;fill-rule:nonzero;stroke:none"/><path id="path42" d="m 1315,1345 h 200 v 200 h -200 z" style="fill:none;stroke:#000;stroke-width:10;stroke-linecap:round;stroke-linejoin:round;stroke-miterlimit:10;stroke-dasharray:none;stroke-opacity:1"/><path id="path44" d="m 1510,1345 h 200 v 200 h -200 z" style="fill:#fff;fill-opacity:1;fill-rule:nonzero;stroke:none"/><path id="path46" d="m 1515,1345 h 200 v 200 h -200 z" style="fill:none;stroke:#000;stroke-width:10;stroke-linecap:round;stroke-linejoin:round;stroke-miterlimit:10;stroke-dasharray:none;stroke-opacity:1"/><path id="path48" d="m 110,1145 h 200 v 200 H 110 Z" style="fill:#fff;fill-opacity:1;fill-rule:nonzero;stroke:none"/><path id="path50" d="m 115,1145 h 200 v 200 H 115 Z" style="fill:none;stroke:#000;stroke-width:10;stroke-linecap:round;stroke-linejoin:round;stroke-miterlimit:10;stroke-dasharray:none;stroke-opacity:1"/><path id="path52" d="m 310,1145 h 200 v 200 H 310 Z" style="fill:#dfe1e1;fill-opacity:1;fill-rule:nonzero;stroke:none"/><path id="path54" d="m 315,1145 h 200 v 200 H 315 Z" style="fill:none;stroke:#000;stroke-width:10;stroke-linecap:round;stroke-linejoin:round;stroke-miterlimit:10;stroke-dasharray:none;stroke-opacity:1"/><g id="g56" transform="scale(10)"><text id="text60" transform="matrix(1,0,0,-1,38,120.5)" style="font-variant:normal;font-weight:400;font-size:12px;font-family:Helvetica;-inkscape-font-specification:Helvetica;writing-mode:lr-tb;fill:#000;fill-opacity:1;fill-rule:nonzero;stroke:none"><tspan id="tspan58" x="0" y="0">x</tspan></text></g><path id="path62" d="m 510,1145 h 200 v 200 H 510 Z" style="fill:#dfe1e1;fill-opacity:1;fill-rule:nonzero;stroke:none"/><path id="path64" d="m 515,1145 h 200 v 200 H 515 Z" style="fill:none;stroke:#000;stroke-width:10;stroke-linecap:round;stroke-linejoin:round;stroke-miterlimit:10;stroke-dasharray:none;stroke-opacity:1"/><g id="g66" transform="scale(10)"><text id="text70" transform="matrix(1,0,0,-1,58,120.5)" style="font-variant:normal;font-weight:400;font-size:12px;font-family:Helvetica;-inkscape-font-specification:Helvetica;writing-mode:lr-tb;fill:#000;fill-opacity:1;fill-rule:nonzero;stroke:none"><tspan id="tspan68" x="0" y="0">x</tspan></text></g><path id="path72" d="m 710,1145 h 200 v 200 H 710 Z" style="fill:#dfe1e1;fill-opacity:1;fill-rule:nonzero;stroke:none"/><path id="path74" d="m 715,1145 h 200 v 200 H 715 Z" style="fill:none;stroke:#000;stroke-width:10;stroke-linecap:round;stroke-linejoin:round;stroke-miterlimit:10;stroke-dasharray:none;stroke-opacity:1"/><g id="g76" transform="scale(10)"><text id="text80" transform="matrix(1,0,0,-1,78,120.5)" style="font-variant:normal;font-weight:400;font-size:12px;font-family:Helvetica;-inkscape-font-specification:Helvetica;writing-mode:lr-tb;fill:#000;fill-opacity:1;fill-rule:nonzero;stroke:none"><tspan id="tspan78" x="0" y="0">x</tspan></text></g><path id="path82" d="m 910,1145 h 200 v 200 H 910 Z" style="fill:#dfe1e1;fill-opacity:1;fill-rule:nonzero;stroke:none"/><path id="path84" d="m 915,1145 h 200 v 200 H 915 Z" style="fill:none;stroke:#000;stroke-width:10;stroke-linecap:round;stroke-linejoin:round;stroke-miterlimit:10;stroke-dasharray:none;stroke-opacity:1"/><g id="g86" transform="scale(10)"><text id="text90" transform="matrix(1,0,0,-1,98,120.5)" style="font-variant:normal;font-weight:400;font-size:12px;font-family:Helvetica;-inkscape-font-specification:Helvetica;writing-mode:lr-tb;fill:#000;fill-opacity:1;fill-rule:nonzero;stroke:none"><tspan id="tspan88" x="0" y="0">x</tspan></text></g><path id="path92" d="m 1110,1145 h 200 v 200 h -200 z" style="fill:#dfe1e1;fill-opacity:1;fill-rule:nonzero;stroke:none"/><path id="path94" d="m 1115,1145 h 200 v 200 h -200 z" style="fill:none;stroke:#000;stroke-width:10;stroke-linecap:round;stroke-linejoin:round;stroke-miterlimit:10;stroke-dasharray:none;stroke-opacity:1"/><g id="g96" transform="scale(10)"><text id="text100" transform="matrix(1,0,0,-1,118,120.5)" style="font-variant:normal;font-weight:400;font-size:12px;font-family:Helvetica;-inkscape-font-specification:Helvetica;writing-mode:lr-tb;fill:#000;fill-opacity:1;fill-rule:nonzero;stroke:none"><tspan id="tspan98" x="0" y="0">x</tspan></text></g><path id="path102" d="m 1310,1145 h 200 v 200 h -200 z" style="fill:#dfe1e1;fill-opacity:1;fill-rule:nonzero;stroke:none"/><path id="path104" d="m 1315,1145 h 200 v 200 h -200 z" style="fill:none;stroke:#000;stroke-width:10;stroke-linecap:round;stroke-linejoin:round;stroke-miterlimit:10;stroke-dasharray:none;stroke-opacity:1"/><g id="g106" transform="scale(10)"><text id="text110" transform="matrix(1,0,0,-1,138,120.5)" style="font-variant:normal;font-weight:400;font-size:12px;font-family:Helvetica;-inkscape-font-specification:Helvetica;writing-mode:lr-tb;fill:#000;fill-opacity:1;fill-rule:nonzero;stroke:none"><tspan id="tspan108" x="0" y="0">x</tspan></text></g><path id="path112" d="m 1510,1145 h 200 v 200 h -200 z" style="fill:#dfe1e1;fill-opacity:1;fill-rule:nonzero;stroke:none"/><path id="path114" d="m 1515,1145 h 200 v 200 h -200 z" style="fill:none;stroke:#000;stroke-width:10;stroke-linecap:round;stroke-linejoin:round;stroke-miterlimit:10;stroke-dasharray:none;stroke-opacity:1"/><g id="g116" transform="scale(10)"><text id="text120" transform="matrix(1,0,0,-1,158,120.5)" style="font-variant:normal;font-weight:400;font-size:12px;font-family:Helvetica;-inkscape-font-specification:Helvetica;writing-mode:lr-tb;fill:#000;fill-opacity:1;fill-rule:nonzero;stroke:none"><tspan id="tspan118" x="0" y="0">x</tspan></text></g><path id="path122" d="m 110,945 h 200 v 200 H 110 Z" style="fill:#fff;fill-opacity:1;fill-rule:nonzero;stroke:none"/><path id="path124" d="m 115,945 h 200 v 200 H 115 Z" style="fill:none;stroke:#000;stroke-width:10;stroke-linecap:round;stroke-linejoin:round;stroke-miterlimit:10;stroke-dasharray:none;stroke-opacity:1"/><path id="path126" d="m 310,945 h 200 v 200 H 310 Z" style="fill:#dbdede;fill-opacity:1;fill-rule:nonzero;stroke:none"/><path id="path128" d="m 315,945 h 200 v 200 H 315 Z" style="fill:none;stroke:#000;stroke-width:10;stroke-linecap:round;stroke-linejoin:round;stroke-miterlimit:10;stroke-dasharray:none;stroke-opacity:1"/><g id="g130" transform="scale(10)"><text id="text134" transform="matrix(1,0,0,-1,38,100.5)" style="font-variant:normal;font-weight:400;font-size:12px;font-family:Helvetica;-inkscape-font-specification:Helvetica;writing-mode:lr-tb;fill:#000;fill-opacity:1;fill-rule:nonzero;stroke:none"><tspan id="tspan132" x="0" y="0">x</tspan></text></g><path id="path136" d="m 510,945 h 200 v 200 H 510 Z" style="fill:#dbdede;fill-opacity:1;fill-rule:nonzero;stroke:none"/><path id="path138" d="m 515,945 h 200 v 200 H 515 Z" style="fill:none;stroke:#000;stroke-width:10;stroke-linecap:round;stroke-linejoin:round;stroke-miterlimit:10;stroke-dasharray:none;stroke-opacity:1"/><g id="g140" transform="scale(10)"><text id="text144" transform="matrix(1,0,0,-1,58,100.5)" style="font-variant:normal;font-weight:400;font-size:12px;font-family:Helvetica;-inkscape-font-specification:Helvetica;writing-mode:lr-tb;fill:#000;fill-opacity:1;fill-rule:nonzero;stroke:none"><tspan id="tspan142" x="0" y="0">x</tspan></text></g><path id="path146" d="m 710,945 h 200 v 200 H 710 Z" style="fill:#dbdede;fill-opacity:1;fill-rule:nonzero;stroke:none"/><path id="path148" d="m 715,945 h 200 v 200 H 715 Z" style="fill:none;stroke:#000;stroke-width:10;stroke-linecap:round;stroke-linejoin:round;stroke-miterlimit:10;stroke-dasharray:none;stroke-opacity:1"/><g id="g150" transform="scale(10)"><text id="text154" transform="matrix(1,0,0,-1,78,100.5)" style="font-variant:normal;font-weight:400;font-size:12px;font-family:Helvetica;-inkscape-font-specification:Helvetica;writing-mode:lr-tb;fill:#000;fill-opacity:1;fill-rule:nonzero;stroke:none"><tspan id="tspan152" x="0" y="0">x</tspan></text></g><path id="path156" d="m 910,945 h 200 v 200 H 910 Z" style="fill:#dbdede;fill-opacity:1;fill-rule:nonzero;stroke:none"/><path id="path158" d="m 915,945 h 200 v 200 H 915 Z" style="fill:none;stroke:#000;stroke-width:10;stroke-linecap:round;stroke-linejoin:round;stroke-miterlimit:10;stroke-dasharray:none;stroke-opacity:1"/><g id="g160" transform="scale(10)"><text id="text164" transform="matrix(1,0,0,-1,98,100.5)" style="font-variant:normal;font-weight:400;font-size:12px;font-family:Helvetica;-inkscape-font-specification:Helvetica;writing-mode:lr-tb;fill:#000;fill-opacity:1;fill-rule:nonzero;stroke:none"><tspan id="tspan162" x="0" y="0">x</tspan></text></g><path id="path166" d="m 1110,945 h 200 v 200 h -200 z" style="fill:#dbdede;fill-opacity:1;fill-rule:nonzero;stroke:none"/><path id="path168" d="m 1115,945 h 200 v 200 h -200 z" style="fill:none;stroke:#000;stroke-width:10;stroke-linecap:round;stroke-linejoin:round;stroke-miterlimit:10;stroke-dasharray:none;stroke-opacity:1"/><g id="g170" transform="scale(10)"><text id="text174" transform="matrix(1,0,0,-1,118,100.5)" style="font-variant:normal;font-weight:400;font-size:12px;font-family:Helvetica;-inkscape-font-specification:Helvetica;writing-mode:lr-tb;fill:#000;fill-opacity:1;fill-rule:nonzero;stroke:none"><tspan id="tspan172" x="0" y="0">x</tspan></text></g><path id="path176" d="m 1510,945 h 200 v 200 h -200 z" style="fill:#dbdede;fill-opacity:1;fill-rule:nonzero;stroke:none"/><path id="path178" d="m 1515,945 h 200 v 200 h -200 z" style="fill:none;stroke:#000;stroke-width:10;stroke-linecap:round;stroke-linejoin:round;stroke-miterlimit:10;stroke-dasharray:none;stroke-opacity:1"/><g id="g180" transform="scale(10)"><text id="text184" transform="matrix(1,0,0,-1,158,100.5)" style="font-variant:normal;font-weight:400;font-size:12px;font-family:Helvetica;-inkscape-font-specification:Helvetica;writing-mode:lr-tb;fill:#000;fill-opacity:1;fill-rule:nonzero;stroke:none"><tspan id="tspan182" x="0" y="0">x</tspan></text></g><path id="path186" d="M 110,745 H 310 V 945 H 110 Z" style="fill:#fff;fill-opacity:1;fill-rule:nonzero;stroke:none"/><path id="path188" d="M 115,745 H 315 V 945 H 115 Z" style="fill:none;stroke:#000;stroke-width:10;stroke-linecap:round;stroke-linejoin:round;stroke-miterlimit:10;stroke-dasharray:none;stroke-opacity:1"/><path id="path190" d="M 310,745 H 510 V 945 H 310 Z" style="fill:#dbdede;fill-opacity:1;fill-rule:nonzero;stroke:none"/><path id="path192" d="M 315,745 H 515 V 945 H 315 Z" style="fill:none;stroke:#000;stroke-width:10;stroke-linecap:round;stroke-linejoin:round;stroke-miterlimit:10;stroke-dasharray:none;stroke-opacity:1"/><g id="g194" transform="scale(10)"><text id="text198" transform="matrix(1,0,0,-1,38,80.5)" style="font-variant:normal;font-weight:400;font-size:12px;font-family:Helvetica;-inkscape-font-specification:Helvetica;writing-mode:lr-tb;fill:#000;fill-opacity:1;fill-rule:nonzero;stroke:none"><tspan id="tspan196" x="0" y="0">x</tspan></text></g><path id="path200" d="M 510,745 H 710 V 945 H 510 Z" style="fill:#dbdede;fill-opacity:1;fill-rule:nonzero;stroke:none"/><path id="path202" d="M 515,745 H 715 V 945 H 515 Z" style="fill:none;stroke:#000;stroke-width:10;stroke-linecap:round;stroke-linejoin:round;stroke-miterlimit:10;stroke-dasharray:none;stroke-opacity:1"/><g id="g204" transform="scale(10)"><text id="text208" transform="matrix(1,0,0,-1,58,80.5)" style="font-variant:normal;font-weight:400;font-size:12px;font-family:Helvetica;-inkscape-font-specification:Helvetica;writing-mode:lr-tb;fill:#000;fill-opacity:1;fill-rule:nonzero;stroke:none"><tspan id="tspan206" x="0" y="0">x</tspan></text></g><path id="path210" d="M 710,745 H 910 V 945 H 710 Z" style="fill:#dbdede;fill-opacity:1;fill-rule:nonzero;stroke:none"/><path id="path212" d="M 715,745 H 915 V 945 H 715 Z" style="fill:none;stroke:#000;stroke-width:10;stroke-linecap:round;stroke-linejoin:round;stroke-miterlimit:10;stroke-dasharray:none;stroke-opacity:1"/><g id="g214" transform="scale(10)"><text id="text218" transform="matrix(1,0,0,-1,78,80.5)" style="font-variant:normal;font-weight:400;font-size:12px;font-family:Helvetica;-inkscape-font-specification:Helvetica;writing-mode:lr-tb;fill:#000;fill-opacity:1;fill-rule:nonzero;stroke:none"><tspan id="tspan216" x="0" y="0">x</tspan></text></g><path id="path220" d="m 910,745 h 200 V 945 H 910 Z" style="fill:#dbdede;fill-opacity:1;fill-rule:nonzero;stroke:none"/><path id="path222" d="m 915,745 h 200 V 945 H 915 Z" style="fill:none;stroke:#000;stroke-width:10;stroke-linecap:round;stroke-linejoin:round;stroke-miterlimit:10;stroke-dasharray:none;stroke-opacity:1"/><g id="g224" transform="scale(10)"><text id="text228" transform="matrix(1,0,0,-1,98,80.5)" style="font-variant:normal;font-weight:400;font-size:12px;font-family:Helvetica;-inkscape-font-specification:Helvetica;writing-mode:lr-tb;fill:#000;fill-opacity:1;fill-rule:nonzero;stroke:none"><tspan id="tspan226" x="0" y="0">x</tspan></text></g><path id="path230" d="m 1110,745 h 200 v 200 h -200 z" style="fill:#dbdede;fill-opacity:1;fill-rule:nonzero;stroke:none"/><path id="path232" d="m 1115,745 h 200 v 200 h -200 z" style="fill:none;stroke:#000;stroke-width:10;stroke-linecap:round;stroke-linejoin:round;stroke-miterlimit:10;stroke-dasharray:none;stroke-opacity:1"/><g id="g234" transform="scale(10)"><text id="text238" transform="matrix(1,0,0,-1,118,80.5)" style="font-variant:normal;font-weight:400;font-size:12px;font-family:Helvetica;-inkscape-font-specification:Helvetica;writing-mode:lr-tb;fill:#000;fill-opacity:1;fill-rule:nonzero;stroke:none"><tspan id="tspan236" x="0" y="0">x</tspan></text></g><path id="path240" d="m 1310,745 h 200 v 200 h -200 z" style="fill:#dbdede;fill-opacity:1;fill-rule:nonzero;stroke:none"/><path id="path242" d="m 1315,745 h 200 v 200 h -200 z" style="fill:none;stroke:#000;stroke-width:10;stroke-linecap:round;stroke-linejoin:round;stroke-miterlimit:10;stroke-dasharray:none;stroke-opacity:1"/><g id="g244" transform="scale(10)"><text id="text248" transform="matrix(1,0,0,-1,138,80.5)" style="font-variant:normal;font-weight:400;font-size:12px;font-family:Helvetica;-inkscape-font-specification:Helvetica;writing-mode:lr-tb;fill:#000;fill-opacity:1;fill-rule:nonzero;stroke:none"><tspan id="tspan246" x="0" y="0">x</tspan></text></g><path id="path250" d="m 1510,745 h 200 v 200 h -200 z" style="fill:#dbdede;fill-opacity:1;fill-rule:nonzero;stroke:none"/><path id="path252" d="m 1515,745 h 200 v 200 h -200 z" style="fill:none;stroke:#000;stroke-width:10;stroke-linecap:round;stroke-linejoin:round;stroke-miterlimit:10;stroke-dasharray:none;stroke-opacity:1"/><g id="g254" transform="scale(10)"><text id="text258" transform="matrix(1,0,0,-1,158,80.5)" style="font-variant:normal;font-weight:400;font-size:12px;font-family:Helvetica;-inkscape-font-specification:Helvetica;writing-mode:lr-tb;fill:#000;fill-opacity:1;fill-rule:nonzero;stroke:none"><tspan id="tspan256" x="0" y="0">x</tspan></text></g><path id="path260" d="M 110,545 H 310 V 745 H 110 Z" style="fill:#fff;fill-opacity:1;fill-rule:nonzero;stroke:none"/><path id="path262" d="M 115,545 H 315 V 745 H 115 Z" style="fill:none;stroke:#000;stroke-width:10;stroke-linecap:round;stroke-linejoin:round;stroke-miterlimit:10;stroke-dasharray:none;stroke-opacity:1"/><path id="path264" d="M 310,545 H 510 V 745 H 310 Z" style="fill:#dbdede;fill-opacity:1;fill-rule:nonzero;stroke:none"/><path id="path266" d="M 315,545 H 515 V 745 H 315 Z" style="fill:none;stroke:#000;stroke-width:10;stroke-linecap:round;stroke-linejoin:round;stroke-miterlimit:10;stroke-dasharray:none;stroke-opacity:1"/><g id="g268" transform="scale(10)"><text id="text272" transform="matrix(1,0,0,-1,38,60.5)" style="font-variant:normal;font-weight:400;font-size:12px;font-family:Helvetica;-inkscape-font-specification:Helvetica;writing-mode:lr-tb;fill:#000;fill-opacity:1;fill-rule:nonzero;stroke:none"><tspan id="tspan270" x="0" y="0">x</tspan></text></g><path id="path274" d="M 510,545 H 710 V 745 H 510 Z" style="fill:#dbdede;fill-opacity:1;fill-rule:nonzero;stroke:none"/><path id="path276" d="M 515,545 H 715 V 745 H 515 Z" style="fill:none;stroke:#000;stroke-width:10;stroke-linecap:round;stroke-linejoin:round;stroke-miterlimit:10;stroke-dasharray:none;stroke-opacity:1"/><g id="g278" transform="scale(10)"><text id="text282" transform="matrix(1,0,0,-1,58,60.5)" style="font-variant:normal;font-weight:400;font-size:12px;font-family:Helvetica;-inkscape-font-specification:Helvetica;writing-mode:lr-tb;fill:#000;fill-opacity:1;fill-rule:nonzero;stroke:none"><tspan id="tspan280" x="0" y="0">x</tspan></text></g><path id="path284" d="M 710,545 H 910 V 745 H 710 Z" style="fill:#dbdede;fill-opacity:1;fill-rule:nonzero;stroke:none"/><path id="path286" d="M 715,545 H 915 V 745 H 715 Z" style="fill:none;stroke:#000;stroke-width:10;stroke-linecap:round;stroke-linejoin:round;stroke-miterlimit:10;stroke-dasharray:none;stroke-opacity:1"/><g id="g288" transform="scale(10)"><text id="text292" transform="matrix(1,0,0,-1,78,60.5)" style="font-variant:normal;font-weight:400;font-size:12px;font-family:Helvetica;-inkscape-font-specification:Helvetica;writing-mode:lr-tb;fill:#000;fill-opacity:1;fill-rule:nonzero;stroke:none"><tspan id="tspan290" x="0" y="0">x</tspan></text></g><path id="path294" d="m 910,545 h 200 V 745 H 910 Z" style="fill:#dbdede;fill-opacity:1;fill-rule:nonzero;stroke:none"/><path id="path296" d="m 915,545 h 200 V 745 H 915 Z" style="fill:none;stroke:#000;stroke-width:10;stroke-linecap:round;stroke-linejoin:round;stroke-miterlimit:10;stroke-dasharray:none;stroke-opacity:1"/><g id="g298" transform="scale(10)"><text id="text302" transform="matrix(1,0,0,-1,98,60.5)" style="font-variant:normal;font-weight:400;font-size:12px;font-family:Helvetica;-inkscape-font-specification:Helvetica;writing-mode:lr-tb;fill:#000;fill-opacity:1;fill-rule:nonzero;stroke:none"><tspan id="tspan300" x="0" y="0">x</tspan></text></g><path id="path304" d="m 1110,545 h 200 v 200 h -200 z" style="fill:#dbdede;fill-opacity:1;fill-rule:nonzero;stroke:none"/><path id="path306" d="m 1115,545 h 200 v 200 h -200 z" style="fill:none;stroke:#000;stroke-width:10;stroke-linecap:round;stroke-linejoin:round;stroke-miterlimit:10;stroke-dasharray:none;stroke-opacity:1"/><g id="g308" transform="scale(10)"><text id="text312" transform="matrix(1,0,0,-1,118,60.5)" style="font-variant:normal;font-weight:400;font-size:12px;font-family:Helvetica;-inkscape-font-specification:Helvetica;writing-mode:lr-tb;fill:#000;fill-opacity:1;fill-rule:nonzero;stroke:none"><tspan id="tspan310" x="0" y="0">x</tspan></text></g><path id="path314" d="m 1310,545 h 200 v 200 h -200 z" style="fill:#dbdede;fill-opacity:1;fill-rule:nonzero;stroke:none"/><path id="path316" d="m 1315,545 h 200 v 200 h -200 z" style="fill:none;stroke:#000;stroke-width:10;stroke-linecap:round;stroke-linejoin:round;stroke-miterlimit:10;stroke-dasharray:none;stroke-opacity:1"/><g id="g318" transform="scale(10)"><text id="text322" transform="matrix(1,0,0,-1,138,60.5)" style="font-variant:normal;font-weight:400;font-size:12px;font-family:Helvetica;-inkscape-font-specification:Helvetica;writing-mode:lr-tb;fill:#000;fill-opacity:1;fill-rule:nonzero;stroke:none"><tspan id="tspan320" x="0" y="0">x</tspan></text></g><path id="path324" d="m 1510,545 h 200 v 200 h -200 z" style="fill:#dbdede;fill-opacity:1;fill-rule:nonzero;stroke:none"/><path id="path326" d="m 1515,545 h 200 v 200 h -200 z" style="fill:none;stroke:#000;stroke-width:10;stroke-linecap:round;stroke-linejoin:round;stroke-miterlimit:10;stroke-dasharray:none;stroke-opacity:1"/><g id="g328" transform="scale(10)"><text id="text332" transform="matrix(1,0,0,-1,158,60.5)" style="font-variant:normal;font-weight:400;font-size:12px;font-family:Helvetica;-inkscape-font-specification:Helvetica;writing-mode:lr-tb;fill:#000;fill-opacity:1;fill-rule:nonzero;stroke:none"><tspan id="tspan330" x="0" y="0">x</tspan></text></g><path id="path334" d="M 110,345 H 310 V 545 H 110 Z" style="fill:#fff;fill-opacity:1;fill-rule:nonzero;stroke:none"/><path id="path336" d="M 115,345 H 315 V 545 H 115 Z" style="fill:none;stroke:#000;stroke-width:10;stroke-linecap:round;stroke-linejoin:round;stroke-miterlimit:10;stroke-dasharray:none;stroke-opacity:1"/><path id="path338" d="M 310,345 H 510 V 545 H 310 Z" style="fill:#fff;fill-opacity:1;fill-rule:nonzero;stroke:none"/><path id="path340" d="M 315,345 H 515 V 545 H 315 Z" style="fill:none;stroke:#000;stroke-width:10;stroke-linecap:round;stroke-linejoin:round;stroke-miterlimit:10;stroke-dasharray:none;stroke-opacity:1"/><path id="path342" d="M 510,345 H 710 V 545 H 510 Z" style="fill:#fff;fill-opacity:1;fill-rule:nonzero;stroke:none"/><path id="path344" d="M 515,345 H 715 V 545 H 515 Z" style="fill:none;stroke:#000;stroke-width:10;stroke-linecap:round;stroke-linejoin:round;stroke-miterlimit:10;stroke-dasharray:none;stroke-opacity:1"/><path id="path346" d="M 710,345 H 910 V 545 H 710 Z" style="fill:#fff;fill-opacity:1;fill-rule:nonzero;stroke:none"/><path id="path348" d="M 715,345 H 915 V 545 H 715 Z" style="fill:none;stroke:#000;stroke-width:10;stroke-linecap:round;stroke-linejoin:round;stroke-miterlimit:10;stroke-dasharray:none;stroke-opacity:1"/><path id="path350" d="m 910,345 h 200 V 545 H 910 Z" style="fill:#fff;fill-opacity:1;fill-rule:nonzero;stroke:none"/><path id="path352" d="m 915,345 h 200 V 545 H 915 Z" style="fill:none;stroke:#000;stroke-width:10;stroke-linecap:round;stroke-linejoin:round;stroke-miterlimit:10;stroke-dasharray:none;stroke-opacity:1"/><path id="path354" d="m 1110,345 h 200 v 200 h -200 z" style="fill:#fff;fill-opacity:1;fill-rule:nonzero;stroke:none"/><path id="path356" d="m 1115,345 h 200 v 200 h -200 z" style="fill:none;stroke:#000;stroke-width:10;stroke-linecap:round;stroke-linejoin:round;stroke-miterlimit:10;stroke-dasharray:none;stroke-opacity:1"/><path id="path358" d="m 1310,345 h 200 v 200 h -200 z" style="fill:#fff;fill-opacity:1;fill-rule:nonzero;stroke:none"/><path id="path360" d="m 1315,345 h 200 v 200 h -200 z" style="fill:none;stroke:#000;stroke-width:10;stroke-linecap:round;stroke-linejoin:round;stroke-miterlimit:10;stroke-dasharray:none;stroke-opacity:1"/><path id="path362" d="m 1510,345 h 200 v 200 h -200 z" style="fill:#fff;fill-opacity:1;fill-rule:nonzero;stroke:none"/><path id="path364" d="m 1515,345 h 200 v 200 h -200 z" style="fill:none;stroke:#000;stroke-width:10;stroke-linecap:round;stroke-linejoin:round;stroke-miterlimit:10;stroke-dasharray:none;stroke-opacity:1"/><path id="path366" d="m 1310,945 h 200 v 200 h -200 z" style="fill:#dbdede;fill-opacity:1;fill-rule:nonzero;stroke:none"/><path id="path368" d="m 1315,945 h 200 v 200 h -200 z" style="fill:none;stroke:#000;stroke-width:10;stroke-linecap:round;stroke-linejoin:round;stroke-miterlimit:10;stroke-dasharray:none;stroke-opacity:1"/><g id="g370" transform="scale(10)"><text id="text374" transform="matrix(1,0,0,-1,138,100.5)" style="font-variant:normal;font-weight:400;font-size:12px;font-family:Helvetica;-inkscape-font-specification:Helvetica;writing-mode:lr-tb;fill:#000;fill-opacity:1;fill-rule:nonzero;stroke:none"><tspan id="tspan372" x="0" y="0">x</tspan></text></g><path id="path376" d="m 1710,1145 h 200 v 200 h -200 z" style="fill:#dbdede;fill-opacity:1;fill-rule:nonzero;stroke:none"/><path id="path378" d="m 1715,1145 h 200 v 200 h -200 z" style="fill:none;stroke:#000;stroke-width:10;stroke-linecap:round;stroke-linejoin:round;stroke-miterlimit:10;stroke-dasharray:10,40;stroke-dashoffset:0;stroke-opacity:1"/><g id="g380" transform="scale(10)"><text id="text384" transform="matrix(1,0,0,-1,178,120.5)" style="font-variant:normal;font-weight:400;font-size:12px;font-family:Helvetica;-inkscape-font-specification:Helvetica;writing-mode:lr-tb;fill:#000;fill-opacity:1;fill-rule:nonzero;stroke:none"><tspan id="tspan382" x="0" y="0">x</tspan></text></g><path id="path386" d="m 1710,945 h 200 v 200 h -200 z" style="fill:#dbdede;fill-opacity:1;fill-rule:nonzero;stroke:none"/><path id="path388" d="m 1715,945 h 200 v 200 h -200 z" style="fill:none;stroke:#000;stroke-width:10;stroke-linecap:round;stroke-linejoin:round;stroke-miterlimit:10;stroke-dasharray:10,40;stroke-dashoffset:0;stroke-opacity:1"/><g id="g390" transform="scale(10)"><text id="text394" transform="matrix(1,0,0,-1,178,100.5)" style="font-variant:normal;font-weight:400;font-size:12px;font-family:Helvetica;-inkscape-font-specification:Helvetica;writing-mode:lr-tb;fill:#000;fill-opacity:1;fill-rule:nonzero;stroke:none"><tspan id="tspan392" x="0" y="0">x</tspan></text></g><path id="path396" d="m 1710,745 h 200 v 200 h -200 z" style="fill:#dbdede;fill-opacity:1;fill-rule:nonzero;stroke:none"/><path id="path398" d="m 1715,745 h 200 v 200 h -200 z" style="fill:none;stroke:#000;stroke-width:10;stroke-linecap:round;stroke-linejoin:round;stroke-miterlimit:10;stroke-dasharray:10,40;stroke-dashoffset:0;stroke-opacity:1"/><g id="g400" transform="scale(10)"><text id="text404" transform="matrix(1,0,0,-1,178,80.5)" style="font-variant:normal;font-weight:400;font-size:12px;font-family:Helvetica;-inkscape-font-specification:Helvetica;writing-mode:lr-tb;fill:#000;fill-opacity:1;fill-rule:nonzero;stroke:none"><tspan id="tspan402" x="0" y="0">x</tspan></text></g><path id="path406" d="m 1710,545 h 200 v 200 h -200 z" style="fill:#dbdede;fill-opacity:1;fill-rule:nonzero;stroke:none"/><path id="path408" d="m 1715,545 h 200 v 200 h -200 z" style="fill:none;stroke:#000;stroke-width:10;stroke-linecap:round;stroke-linejoin:round;stroke-miterlimit:10;stroke-dasharray:10,40;stroke-dashoffset:0;stroke-opacity:1"/><g id="g410" transform="scale(10)"><text id="text414" transform="matrix(1,0,0,-1,178,60.5)" style="font-variant:normal;font-weight:400;font-size:12px;font-family:Helvetica;-inkscape-font-specification:Helvetica;writing-mode:lr-tb;fill:#000;fill-opacity:1;fill-rule:nonzero;stroke:none"><tspan id="tspan412" x="0" y="0">x</tspan></text></g><path id="path416" d="m 1910,1145 h 200 v 200 h -200 z" style="fill:#fff;fill-opacity:1;fill-rule:nonzero;stroke:none"/><path id="path418" d="m 1915,1145 h 200 v 200 h -200 z" style="fill:none;stroke:#000;stroke-width:10;stroke-linecap:round;stroke-linejoin:round;stroke-miterlimit:10;stroke-dasharray:10,40;stroke-dashoffset:0;stroke-opacity:1"/><g id="g420" transform="scale(10)"><text id="text424" transform="matrix(1,0,0,-1,198,120.5)" style="font-variant:normal;font-weight:400;font-size:12px;font-family:Helvetica;-inkscape-font-specification:Helvetica;writing-mode:lr-tb;fill:#000;fill-opacity:1;fill-rule:nonzero;stroke:none"><tspan id="tspan422" x="0" y="0">x</tspan></text></g><path id="path426" d="m 1910,945 h 200 v 200 h -200 z" style="fill:#fff;fill-opacity:1;fill-rule:nonzero;stroke:none"/><path id="path428" d="m 1915,945 h 200 v 200 h -200 z" style="fill:none;stroke:#000;stroke-width:10;stroke-linecap:round;stroke-linejoin:round;stroke-miterlimit:10;stroke-dasharray:10,40;stroke-dashoffset:0;stroke-opacity:1"/><g id="g430" transform="scale(10)"><text id="text434" transform="matrix(1,0,0,-1,198,100.5)" style="font-variant:normal;font-weight:400;font-size:12px;font-family:Helvetica;-inkscape-font-specification:Helvetica;writing-mode:lr-tb;fill:#000;fill-opacity:1;fill-rule:nonzero;stroke:none"><tspan id="tspan432" x="0" y="0">x</tspan></text></g><path id="path436" d="m 1910,745 h 200 v 200 h -200 z" style="fill:#fff;fill-opacity:1;fill-rule:nonzero;stroke:none"/><path id="path438" d="m 1915,745 h 200 v 200 h -200 z" style="fill:none;stroke:#000;stroke-width:10;stroke-linecap:round;stroke-linejoin:round;stroke-miterlimit:10;stroke-dasharray:10,40;stroke-dashoffset:0;stroke-opacity:1"/><g id="g440" transform="scale(10)"><text id="text444" transform="matrix(1,0,0,-1,198,80.5)" style="font-variant:normal;font-weight:400;font-size:12px;font-family:Helvetica;-inkscape-font-specification:Helvetica;writing-mode:lr-tb;fill:#000;fill-opacity:1;fill-rule:nonzero;stroke:none"><tspan id="tspan442" x="0" y="0">x</tspan></text></g><path id="path446" d="m 1910,545 h 200 v 200 h -200 z" style="fill:#fff;fill-opacity:1;fill-rule:nonzero;stroke:none"/><path id="path448" d="m 1915,545 h 200 v 200 h -200 z" style="fill:none;stroke:#000;stroke-width:10;stroke-linecap:round;stroke-linejoin:round;stroke-miterlimit:10;stroke-dasharray:10,40;stroke-dashoffset:0;stroke-opacity:1"/><g id="g450" transform="scale(10)"><text id="text454" transform="matrix(1,0,0,-1,198,60.5)" style="font-variant:normal;font-weight:400;font-size:12px;font-family:Helvetica;-inkscape-font-specification:Helvetica;writing-mode:lr-tb;fill:#000;fill-opacity:1;fill-rule:nonzero;stroke:none"><tspan id="tspan452" x="0" y="0">x</tspan></text></g><path id="path456" d="m 410,590 h 1600 v 800 H 410 Z" style="fill:none;stroke:#df6251;stroke-width:20;stroke-linecap:round;stroke-linejoin:round;stroke-miterlimit:10;stroke-dasharray:none;stroke-opacity:1"/><g id="g458" transform="scale(10)"><text id="text462" transform="matrix(1,0,0,-1,222.674,90.668)" style="font-variant:normal;font-weight:400;font-size:12px;font-family:HelveticaNeue;-inkscape-font-specification:HelveticaNeue;writing-mode:lr-tb;fill:#df6251;fill-opacity:1;fill-rule:nonzero;stroke:none"><tspan id="tspan460" x="0 7.116 13.56 17.34 23.784 27.12 36.216 38.88 45.552 52.668 59.556" y="0">data window</tspan></text></g><path id="path464" d="M 110,340 H 1710 V 1540 H 110 Z" style="fill:none;stroke:#38e561;stroke-width:20;stroke-linecap:round;stroke-linejoin:round;stroke-miterlimit:10;stroke-dasharray:none;stroke-opacity:1"/><g id="g466" transform="scale(10)"><text id="text470" transform="matrix(1,0,0,-1,51.3762,18.168)" style="font-variant:normal;font-weight:400;font-size:12px;font-family:HelveticaNeue;-inkscape-font-specification:HelveticaNeue;writing-mode:lr-tb;fill:#30c054;fill-opacity:1;fill-rule:nonzero;stroke:none"><tspan id="tspan468" x="0 6.444 13.548 16.212 22.884 28.884 32.664 39.12 46.236 49.572 56.016 63.132 69.576 73.572 77.352 84.024 87.804" y="0">adjusted aperture</tspan></text></g></g></g></svg>